PathFileType	4	(X/Y/Z)	C:\Users\°ÂÌØÂü\Desktop\20210112\bx_y_10_902-Unnamed.trc
DataRate	CameraRate	NumFrames	NumMarkers	Units	OrigDataRate	OrigDataStartFrame	OrigNumFrames
50.00	50.00	       6	0	mm	50.00	130	       516
Frame#	Time	
		

130	2.580	-802.20929	219.01471	796.84943	-867.69928	288.34177	857.19379	-877.84186	-70.76093	855.31946	-732.26056	68.55141	221.20634	-827.14484	148.62909	562.33746				-864.41943	251.41855	555.18207	-879.69824	262.42783	475.47977	-798.51862	210.17099	531.39069	-784.84296	14.54700	523.15173	-662.57281	-68.76782	161.85060	-723.90228	159.92268	224.72144	-778.43152	229.37587	200.43628	-622.02557	-79.32164	157.40186	-882.54156	296.18250	144.70186	-882.70471	257.92520	614.11584	-605.72552	19.99031	166.90584	-563.05310	-35.71494	163.82057	-678.80182	176.11482	163.99666	-597.90558	221.48827	173.00093	-666.18500	299.34784	158.21524	-627.82806	306.67899	160.80185	-562.42010	256.28052	164.12584	-528.12311	304.45560	146.47020	-149.85338	84.69106	1114.18433	-891.98413	295.27463	727.36011	-884.93079	-59.79151	700.62994	-518.11371	-72.59234	143.16986	-853.19879	-34.49936	602.27661	-954.91205	97.65195	1094.91077	-774.23199	-14.42164	201.14586	-799.25684	47.54748	172.34413	-801.52637	179.36237	180.50037	-866.81299	-40.13495	464.65945	-876.10797	-78.57500	141.43494	-678.67297	51.44487	163.54327				-848.41895	-29.03066	552.80334													-795.63525	-7.28308	797.10510	
131	2.600	-801.94147	218.89766	796.64935	-867.43329	288.00760	856.79657	-876.67310	-70.83120	855.82184	-732.26056	68.55141	221.20634							-864.63208	251.07253	555.12335	-880.16132	261.95087	475.04556	-798.65900	210.10980	531.13043	-784.51953	14.35563	523.05573	-662.46930	-68.90569	162.03131	-724.02838	159.60812	224.60446	-778.60724	229.02008	200.21091	-621.86743	-79.51138	157.51477	-882.61383	296.12537	144.74792	-884.73071	257.89124	617.42865	-605.85797	18.98730	166.96951	-562.66473	-35.75968	163.66380	-678.80182	176.11482	163.99666	-597.90558	221.48827	173.00093	-666.17700	299.50836	158.18546	-627.88806	306.70370	160.88945	-562.30322	256.27502	163.91980	-528.28632	304.24658	146.50754	-150.83244	85.24230	1124.59924	-891.95978	294.67395	727.08667	-883.92810	-59.54686	700.37799	-518.01489	-72.46124	143.12256	-852.26996	-34.45624	602.09772	-955.46753	96.75845	1094.46826	-774.15399	-14.54145	200.99452	-799.47314	46.95490	172.29996	-802.00232	178.75140	180.98959	-866.06024	-40.85083	465.13773	-876.02838	-78.54763	141.55200	-678.58661	50.77549	163.54753				-847.41510	-29.51971	552.89435													-794.69843	-6.35695	796.20575	
132	2.620	-801.86707	218.50595	796.61359	-868.00208	286.83139	855.71637	-875.23090	-70.81834	855.93250	-732.27637	68.37773	221.32123	-362.41061	244.13632	994.79492				-864.50507	250.89835	555.03784	-880.06824	261.53232	474.98746	-798.66254	210.05493	531.24670	-783.76648	14.03277	523.07617	-662.34052	-69.16772	162.00813	-724.73969	158.59560	224.97612	-778.74902	228.84865	200.17157	-621.97229	-79.73908	157.36113	-882.50659	296.28424	144.83293				-605.44379	19.82062	167.12439	-562.82336	-35.28022	163.45016	-678.80182	176.11482	163.99666	-597.90558	221.48827	173.00093	-666.18500	299.34784	158.21524	-627.88806	306.70370	160.88945	-562.44843	256.27637	164.08040	-528.35168	304.29648	146.42798	-151.91476	85.59267	1135.49707	-891.68756	294.26520	727.12311	-882.82953	-59.64436	700.60114	-518.18237	-72.46057	142.90694	-851.61389	-34.77325	602.14313	-957.34064	96.81507	1094.42712	-773.99164	-14.88591	200.87894	-799.60535	46.45434	172.30510	-801.64893	178.98422	180.37856	-865.65955	-41.39455	465.54126	-876.03320	-78.59757	141.50241							-846.60846	-30.05160	553.24152													-793.83527	-6.82114	796.75458	
133	2.640	-801.57385	218.28716	796.65619	-867.69629	286.60175	855.73859	-874.01733	-70.74585	856.24347				-362.28070	245.87715	1003.69263	-825.70544	148.47551	561.82446	-864.42230	250.65115	554.89966	-880.06537	261.34842	475.03412	-798.48151	210.11459	530.97845	-783.31238	13.33515	523.17950	-662.45337	-69.49090	162.10258	-723.72357	160.09305	224.75061	-778.64453	228.76396	199.99477	-621.54218	-79.70668	157.03809	-882.42694	296.08252	144.74060				-605.47516	18.97290	166.99426	-562.95410	-35.63509	163.67874	-678.80182	176.11482	163.99666	-598.00818	221.73502	173.07124	-666.17700	299.50836	158.18546	-628.05414	307.09021	160.66621	-562.44397	256.60092	164.08957	-528.28632	304.24658	146.50754	-153.14725	86.15568	1146.46240	-891.45581	293.76505	727.11676	-881.96301	-60.83710	701.60297	-518.26825	-72.39592	143.16208	-851.12659	-35.20785	602.24152	-958.10095	96.73106	1094.10620	-773.81842	-15.30629	200.62167	-799.31104	45.78625	171.55933	-802.06641	178.58043	180.33669	-865.46014	-42.08302	465.32318	-876.03320	-78.59757	141.50241							-846.39673	-30.71617	553.28491													-792.66870	-6.98640	796.90173	
134	2.660	-801.47675	218.19350	796.65869	-868.02161	285.79025	855.65491	-872.97180	-71.04297	856.37988				-362.93414	246.12378	1011.97888	-825.93414	147.47708	562.20764	-864.46216	250.16866	554.78314	-880.10406	260.75989	475.24152	-798.58826	210.12839	530.89478	-783.50604	12.67647	522.76056	-662.56116	-69.99836	161.74478	-723.87292	159.90125	224.62965	-778.79413	229.07596	200.06769	-621.60553	-79.86295	157.08765	-882.42584	296.01208	144.62569				-605.55286	19.56515	167.45897	-562.96924	-35.49055	163.82886	-678.80182	176.11482	163.99666	-598.07898	222.12457	173.26486	-666.53302	299.62186	157.82864	-628.06879	307.45230	160.76279	-562.35425	256.51324	164.02351	-528.40515	304.08804	146.30641	-155.01018	86.68338	1157.61511	-891.48230	293.58609	727.22247	-881.44299	-61.26181	701.82465	-518.10632	-72.61373	143.18825	-850.81000	-36.09615	602.54810	-958.88013	95.66468	1094.02209	-774.25677	-15.56098	200.65472	-799.43701	45.42049	171.71017	-801.78436	179.10103	179.85202	-865.45441	-42.71629	465.22513	-876.15045	-78.55431	141.41328							-846.34106	-30.87885	553.25366													-792.00854	-7.01859	797.03430	
135	2.680	-801.13281	217.10278	796.49817	-867.13562	286.14194	856.74994	-872.02783	-71.41510	856.06219							-825.80212	147.03510	562.13623	-864.54968	249.95795	555.21600	-880.01813	260.49109	475.20325	-798.32727	209.74185	531.08746	-783.26111	12.35602	522.76508	-662.91296	-69.79291	161.12209	-723.87292	159.90125	224.62965	-778.80011	229.07925	199.75334	-621.63361	-79.88081	157.01320	-882.56006	296.11014	144.61603				-605.85590	19.57954	167.80904	-563.13220	-35.60115	163.85710	-678.80182	176.11482	163.99666	-598.03265	222.11093	173.52782	-666.53302	299.62186	157.82864	-627.33716	308.07697	161.25258	-562.87378	256.57532	164.50993	-528.42621	303.97318	146.34909	-156.34302	86.70037	1169.10364	-890.95868	292.74142	727.27325	-880.64166	-61.64634	701.82990	-518.17963	-72.35200	143.00166	-850.43719	-36.16998	602.37689	-958.77393	95.83668	1092.65491	-774.50818	-15.93379	200.50041	-799.62244	45.40122	171.56319	-801.84772	179.01990	179.85533	-865.17761	-43.17436	465.65964	-876.05621	-78.49118	141.57738							-845.89758	-31.50445	553.06158													-791.66278	-6.99867	797.14014	
